<svg
   xmlns:dc="http://purl.org/dc/elements/1.1/"
   xmlns:cc="http://creativecommons.org/ns#"
   xmlns:rdf="http://www.w3.org/1999/02/22-rdf-syntax-ns#"
   xmlns:svg="http://www.w3.org/2000/svg"
   xmlns="http://www.w3.org/2000/svg"
   xmlns:sodipodi="http://sodipodi.sourceforge.net/DTD/sodipodi-0.dtd"
   xmlns:inkscape="http://www.inkscape.org/namespaces/inkscape"
   version="1.1"
   id="Layer_1"
   x="0px"
   y="0px"
   viewBox="0 0 288 288"
   xml:space="preserve"
   sodipodi:docname="exclamation.svg"
   width="16"
   height="16"
   inkscape:version="1.0.1 (3bc2e813f5, 2020-09-07)"><metadata
   id="metadata90"><rdf:RDF><cc:Work
       rdf:about=""><dc:format>image/svg+xml</dc:format><dc:type
         rdf:resource="http://purl.org/dc/dcmitype/StillImage" /><dc:title></dc:title></cc:Work></rdf:RDF></metadata><defs
   id="defs88" /><sodipodi:namedview
   pagecolor="#ffffff"
   bordercolor="#666666"
   borderopacity="1"
   objecttolerance="10"
   gridtolerance="10"
   guidetolerance="10"
   inkscape:pageopacity="0"
   inkscape:pageshadow="2"
   inkscape:window-width="2560"
   inkscape:window-height="1377"
   id="namedview86"
   showgrid="false"
   scale-x="18"
   inkscape:zoom="4.712397"
   inkscape:cx="143.027"
   inkscape:cy="41.168009"
   inkscape:window-x="1912"
   inkscape:window-y="-8"
   inkscape:window-maximized="1"
   inkscape:current-layer="Layer_1" />
<g
   id="g53">
	<path
   style="fill:#e2574c"
   d="M 143.027,0 C 64.04,0 0,64.04 0,143.027 c 0,78.996 64.04,143.027 143.027,143.027 78.996,0 143.027,-64.022 143.027,-143.027 C 286.054,64.04 222.022,0 143.027,0 Z m 0,259.236 c -64.183,0 -116.209,-52.026 -116.209,-116.209 0,-64.183 52.026,-116.209 116.209,-116.209 64.183,0 116.209,52.026 116.209,116.209 0,64.183 -52.026,116.209 -116.209,116.209 z m 0.009,-196.51 c -10.244,0 -17.995,5.346 -17.995,13.981 v 79.201 c 0,8.644 7.75,13.972 17.995,13.972 9.994,0 17.995,-5.551 17.995,-13.972 V 76.707 C 161.03,68.277 153.03,62.726 143.036,62.726 Z m 0,124.997 c -9.842,0 -17.852,8.01 -17.852,17.86 0,9.833 8.01,17.843 17.852,17.843 9.842,0 17.843,-8.01 17.843,-17.843 -0.001,-9.851 -8.001,-17.86 -17.843,-17.86 z"
   id="path51" />
</g>
<g
   id="g55">
</g>
<g
   id="g57">
</g>
<g
   id="g59">
</g>
<g
   id="g61">
</g>
<g
   id="g63">
</g>
<g
   id="g65">
</g>
<g
   id="g67">
</g>
<g
   id="g69">
</g>
<g
   id="g71">
</g>
<g
   id="g73">
</g>
<g
   id="g75">
</g>
<g
   id="g77">
</g>
<g
   id="g79">
</g>
<g
   id="g81">
</g>
<g
   id="g83">
</g>
</svg>
